<svg width="5942" height="5919" viewBox="0 0 5942 5919" fill="none" xmlns="http://www.w3.org/2000/svg">
<path d="M2959.22 0C1325.35 0 0 1325.31 0 2959.22V5918.43H2982.12C4615.89 5918.35 5941.11 4593.03 5941.11 2959.22C5941.11 1359.46 4658.48 0 2959.22 0ZM2742.1 1473.87C2742.1 1405.31 2787.81 1359.6 2856.37 1359.6H3084.92C3153.48 1359.6 3199.19 1405.31 3199.19 1473.87V3530.47C3199.19 3599.03 3153.48 3644.74 3084.92 3644.74H2856.37C2787.81 3644.74 2742.1 3599.04 2742.1 3530.47V1473.87ZM2970.64 4558.72C2776.38 4558.72 2627.91 4410.17 2627.91 4215.99C2627.91 4021.73 2776.47 3873.27 2970.64 3873.27C3164.91 3873.27 3313.37 4021.82 3313.37 4215.99C3313.37 4410.17 3164.81 4558.72 2970.64 4558.72Z" fill="#3254F9"/>
<path d="M2959.22 5C4655.66 5.00026 5936.11 1362.16 5936.11 2959.22C5936.11 4590.27 4613.13 5913.35 2982.12 5913.43H5V2959.22C5 1328.07 1328.12 5 2959.22 5ZM2970.64 3868.27C2773.71 3868.27 2622.91 4018.97 2622.91 4216C2622.91 4412.93 2773.61 4563.72 2970.64 4563.72C3167.58 4563.72 3318.37 4412.93 3318.37 4216C3318.37 4019.06 3167.67 3868.27 2970.64 3868.27ZM2856.37 1354.6C2820.95 1354.6 2791.05 1366.42 2769.99 1387.49C2748.92 1408.55 2737.1 1438.45 2737.1 1473.87V3530.47C2737.1 3565.89 2748.93 3595.79 2769.99 3616.85C2791.05 3637.92 2820.95 3649.75 2856.37 3649.75H3084.92C3120.34 3649.75 3150.24 3637.92 3171.3 3616.85C3192.37 3595.79 3204.19 3565.89 3204.19 3530.47V1473.87C3204.19 1438.45 3192.36 1408.55 3171.3 1387.49C3150.24 1366.42 3120.34 1354.6 3084.92 1354.6H2856.37Z" stroke="url(#paint0_linear_628_3535)" stroke-opacity="0.4" stroke-width="10"/>
<ellipse cx="2970.5" cy="2959.72" rx="2970.5" ry="2959" fill="#3254F9"/>
<g filter="url(#filter0_d_628_3535)">
<g filter="url(#filter1_d_628_3535)">
<path d="M4591.92 2814.06L4226.09 2734.2L4226.12 2734.17C4169.05 2503.38 4049.68 2291.89 3880.58 2121.93C3845.05 2091.75 3791.86 2093.26 3758.2 2125.42C3724.5 2157.55 3721.52 2209.64 3751.34 2245.25C3876.62 2371.18 3970.69 2523.63 4026.33 2690.87L3910.6 2665.76C3759.42 2632.65 3621.05 2557.79 3511.9 2450.01C3402.74 2342.26 3327.34 2206.08 3294.58 2057.61L3149.07 1392.12H3149.11C3133.41 1320.33 3084.96 1259.57 3017.68 1227.37C2950.4 1195.14 2871.74 1195.04 2804.39 1227.09C2737.01 1259.11 2688.41 1319.73 2672.53 1391.48L2588.84 1761.58C2253.06 1850.31 1951.49 2058.48 1774.5 2327.06H1774.47C1758.66 2346.68 1752.02 2371.9 1756.18 2396.56C1760.35 2421.22 1774.93 2443.02 1796.34 2456.58C1817.75 2470.18 1844.01 2474.26 1868.61 2467.85C1893.25 2461.44 1914.01 2445.17 1925.76 2422.98C2085.57 2181.1 2376.44 1988.21 2684.99 1920.15H2686.42L2692.39 1918.46L2695.47 1917.48L2700.47 1915.54L2704.1 1914.02L2708.15 1911.91V1911.87C2709.48 1911.24 2710.74 1910.54 2711.96 1909.76L2715.48 1907.54L2719.18 1904.97L2722.52 1902.4C2723.6 1901.52 2724.68 1900.64 2725.68 1899.65L2729.13 1896.45L2731.75 1893.77C2732.94 1892.54 2734.02 1891.2 2735.09 1889.86C2736.17 1888.52 2736.46 1888.17 2737.18 1887.29C2737.9 1886.41 2739.26 1884.43 2740.27 1882.96L2742.06 1880.28L2744.68 1875.77L2746.3 1872.49H2746.34C2747.06 1871.16 2747.7 1869.75 2748.24 1868.34C2748.85 1866.96 2749.43 1865.55 2749.86 1864.15C2750.32 1862.91 2750.75 1861.64 2751.11 1860.41C2751.47 1859.18 2752.19 1857.03 2752.55 1855.34L2752.59 1855.37C2752.8 1854.74 2752.98 1854.07 2753.13 1853.4L2848.68 1429.03C2854.85 1400.28 2880.72 1379.71 2910.67 1379.71C2940.63 1379.71 2966.49 1400.28 2972.63 1429.03L3118.22 2094.52H3118.25C3158.12 2276.1 3250.22 2442.7 3383.66 2574.58C3517.1 2706.46 3686.28 2798.08 3871.16 2838.58L4552.59 2986.67L4552.55 2986.7C4581.68 2992.9 4602.44 3018.16 4602.44 3047.39C4602.44 3076.6 4581.68 3101.85 4552.55 3108.09L3871.23 3256.1C3849.14 3260.89 3826.97 3266.49 3805.46 3272.69C3763.25 3285.79 3736.92 3326.97 3743.25 3369.94C3749.57 3412.91 3786.71 3445.07 3830.96 3445.95C3839.62 3445.95 3848.2 3444.75 3856.46 3442.32C3874.03 3437.25 3892.13 3432.64 3910.2 3428.76L4591.52 3280.75H4591.56C4664.33 3264.9 4725.68 3217.31 4758.15 3151.52C4790.62 3085.75 4790.62 3009 4758.15 2943.23C4725.68 2877.47 4664.33 2829.85 4591.56 2814.03L4591.92 2814.06Z" fill="white"/>
</g>
<path d="M4028.61 3631.39C3986.41 3605.5 3930.84 3617.86 3904.19 3659.08C3757.07 3887.26 3533.4 4057.95 3271.72 4141.78L3294.6 4036.81C3317.81 3930.12 3363.32 3829.27 3428.26 3740.72C3444.71 3721.8 3452.33 3697.04 3449.31 3672.38C3446.26 3647.73 3432.79 3625.47 3412.24 3610.95C3391.66 3596.48 3365.83 3591.12 3341.05 3596.2C3316.23 3601.23 3294.75 3616.27 3281.74 3637.58C3202.33 3745.9 3146.68 3869.22 3118.34 3999.72L2972.76 4665.63C2966.58 4694.38 2940.72 4714.95 2910.76 4714.95C2880.81 4714.95 2854.98 4694.38 2848.8 4665.63L2703.22 3999.72C2663.17 3818.14 2570.96 3651.61 2437.49 3519.83C2304.01 3388.02 2134.8 3296.44 1949.95 3255.96L1268.59 3107.88C1239.5 3101.64 1218.74 3076.39 1218.74 3047.19C1218.74 3017.95 1239.5 2992.69 1268.59 2986.49L1949.92 2838.41L1949.95 2838.38C2180.84 2788.22 2385.79 2658.59 2527.68 2472.99C2543.63 2454.29 2550.99 2429.98 2548.12 2405.75C2545.21 2381.55 2532.31 2359.57 2512.38 2344.99C2492.48 2330.41 2467.34 2324.49 2442.84 2328.64C2418.34 2332.8 2396.65 2346.64 2382.89 2366.97C2266.87 2518.71 2099.3 2624.7 1910.48 2665.81L1229.15 2813.82C1156.38 2829.64 1095.03 2877.23 1062.56 2943.02C1030.09 3008.79 1030.09 3085.54 1062.56 3151.31C1095.03 3217.11 1156.38 3264.69 1229.15 3280.54L1595.06 3360.4C1656.67 3610.87 1791.62 3838.21 1983.32 4014.43C2020.14 4043.32 2073.44 4039.62 2105.73 4005.95C2138.06 3972.24 2138.56 3919.89 2106.92 3885.58C1963.05 3753.39 1855.7 3587.66 1794.84 3403.78L1910.47 3428.9C2061.65 3461.98 2199.97 3536.86 2309.13 3644.61C2418.29 3752.4 2493.68 3888.58 2526.37 4037.05L2671.95 4702.96L2671.99 4703C2687.69 4774.82 2736.25 4835.58 2803.59 4867.74C2870.94 4899.91 2949.65 4899.9 3017.03 4867.74C3084.38 4835.59 3132.91 4774.82 3148.63 4703L3228.7 4337.41C3571.37 4255.12 3868.14 4045.79 4056.64 3753.39C4083.04 3712.07 4070.54 3657.58 4028.59 3631.37L4028.61 3631.39Z" fill="white"/>
<g filter="url(#filter2_d_628_3535)">
<path d="M1714.96 4387.86C1712.16 4386.52 1433.93 4257.07 1388.41 3967.88C1380.83 3925.44 1343.23 3894.48 1299.3 3894.48C1255.33 3894.48 1217.72 3925.44 1210.14 3967.88C1164.89 4254.29 886.044 4386.59 883.497 4387.75H883.533C851.888 4402.44 831.737 4433.68 831.737 4467.99C831.737 4502.3 851.888 4533.5 883.533 4548.19C886.335 4549.53 1164.67 4678.98 1210.18 4968.17L1210.14 4968.13C1217.72 5010.61 1255.33 5041.57 1299.3 5041.57C1343.23 5041.57 1380.83 5010.61 1388.41 4968.13C1402.1 4882.82 1437.3 4802.23 1490.82 4733.65C1507.74 4715.15 1515.97 4690.53 1513.52 4665.8C1511.08 4641.11 1498.19 4618.5 1477.96 4603.56C1457.74 4588.59 1432.06 4582.64 1407.13 4587.11C1382.24 4591.62 1360.36 4606.13 1346.89 4627.16C1329.72 4649.46 1313.85 4672.67 1299.37 4696.73C1245.06 4608.04 1173.84 4530.41 1089.63 4468.06C1173.79 4405.78 1244.99 4328.22 1299.3 4239.6C1424.8 4448.65 1627.92 4543.23 1639.24 4548.3V4548.26C1661.23 4560.66 1687.52 4563.41 1711.73 4555.87C1735.9 4548.33 1755.73 4531.18 1766.4 4508.6C1777.03 4486.02 1777.53 4460.09 1767.76 4437.13C1757.99 4414.16 1738.85 4396.31 1714.96 4387.86Z" fill="white"/>
</g>
<g filter="url(#filter3_dd_628_3535)">
<path d="M4940.89 1490.13C4937.98 1488.9 4659.03 1356.59 4613.98 1070.08C4606.4 1027.64 4568.8 996.675 4524.87 996.675C4480.9 996.675 4443.33 1027.64 4435.71 1070.08C4390.45 1356.59 4111.61 1488.89 4109.07 1490.06H4109.1C4077.53 1504.74 4057.38 1535.95 4057.38 1570.23C4057.38 1604.5 4077.53 1635.71 4109.1 1650.4C4111.9 1651.63 4390.96 1783.93 4436.01 2070.37V2070.33C4443.59 2112.81 4481.19 2143.78 4525.12 2143.78C4569.09 2143.78 4606.66 2112.81 4614.24 2070.33C4659.5 1783.93 4938.27 1651.62 4940.79 1650.47H4940.82C4972.4 1635.78 4992.51 1604.57 4992.51 1570.3C4992.51 1536.03 4972.4 1504.82 4940.82 1490.13L4940.89 1490.13ZM4524.65 1798.73L4524.69 1798.76C4470.38 1710.11 4399.19 1632.54 4315.02 1570.26C4399.22 1508.13 4470.48 1430.68 4524.86 1342.15C4579.13 1430.81 4650.33 1508.41 4734.49 1570.72C4650.36 1632.86 4579.2 1710.29 4524.86 1798.76L4524.65 1798.73Z" fill="white"/>
</g>
<g filter="url(#filter4_d_628_3535)">
<path d="M1753.8 2006.64C1784.19 2007.03 1812.78 1992.44 1829.88 1967.79C1846.97 1943.13 1850.31 1911.71 1838.75 1884.13C1827.15 1856.55 1802.22 1836.51 1772.37 1830.8C1742.52 1825.09 1711.74 1834.5 1690.47 1855.77C1665.11 1881.14 1657.61 1918.86 1671.4 1951.69C1685.19 1984.52 1717.59 2006.11 1753.8 2006.64Z" fill="white"/>
</g>
<path d="M4370.98 4018C4406 3983.41 4406 3927.58 4370.98 3892.99C4351.87 3874.36 4325.25 3865.09 4298.46 3867.66C4271.63 3870.24 4247.38 3884.4 4232.29 3906.31C4229.03 3911.13 4226.26 3916.27 4224.03 3921.63C4221.73 3926.95 4220.01 3932.48 4218.9 3938.15C4217.68 3944 4217.06 3949.91 4217.06 3955.9C4217.6 3991.37 4239.62 4023.18 4273.1 4036.7C4306.58 4050.2 4345.05 4042.87 4370.91 4018L4370.98 4018Z" fill="white"/>
<g filter="url(#filter5_d_628_3535)">
<path d="M2378.13 4097.59C2375.83 4092.27 2373.03 4087.16 2369.8 4082.34C2366.49 4077.55 2362.76 4073.04 2358.59 4068.92C2354.46 4064.79 2349.86 4061.13 2344.94 4057.93C2340.02 4054.72 2334.81 4051.97 2329.35 4049.75C2323.89 4047.6 2318.22 4045.88 2312.43 4044.72C2282.87 4039.08 2252.41 4048.17 2231 4068.92C2226.87 4073.04 2223.1 4077.54 2219.8 4082.34C2216.53 4087.13 2213.76 4092.23 2211.57 4097.59C2209.2 4102.91 2207.48 4108.47 2206.4 4114.18C2205.21 4119.88 2204.6 4125.66 2204.6 4131.47C2204.6 4137.29 2205.21 4143.03 2206.4 4148.7C2207.48 4154.37 2209.2 4159.9 2211.57 4165.22C2213.76 4170.57 2216.53 4175.68 2219.8 4180.47C2223.14 4185.3 2226.87 4189.84 2231 4194.03C2266.28 4228.37 2323.21 4228.37 2358.52 4194.03C2362.65 4189.84 2366.38 4185.3 2369.72 4180.47C2376.26 4170.82 2380.86 4160.04 2383.19 4148.7C2384.34 4143.03 2384.92 4137.25 2384.92 4131.47C2384.95 4125.66 2384.38 4119.88 2383.19 4114.18C2382.01 4108.51 2380.32 4102.98 2378.13 4097.59Z" fill="white"/>
</g>
<path d="M1774.15 4476.81C1774.15 4506.14 1753.57 4556.55 1498.94 4721.67C1249.45 4759.74 1078.15 4614.6 1078.15 4476.81C1078.15 4339.03 1169.45 4214.98 1346.16 4214.98C1488.14 4276.2 1618.28 4388.85 1774.15 4476.81Z" fill="white"/>
<path d="M3871.38 2869.29L3099.77 2893.47L3116.23 2521.04V2095.63L3871.38 2869.29Z" fill="white"/>
<path d="M2700.08 1913.53L2720.65 2826.08L2338.45 2856.43L2108.51 2873.92L1917.67 2809.62L2295.75 2447.48L2383.72 2351.29L2460.37 2252.52L2525.18 2149.12L2577.65 1936.16L2700.08 1913.53Z" fill="white"/>
<ellipse cx="4545.26" cy="1579.68" rx="237.656" ry="249.487" fill="white"/>
<rect x="1183.09" y="3266.42" width="440.332" height="3429.04" transform="rotate(-90 1183.09 3266.42)" fill="white"/>
<path d="M1935.67 3248.93L2707.28 3224.75L2690.82 3597.18V3955.72L1935.67 3248.93Z" fill="white"/>
<rect x="2687.22" y="1365.17" width="440.332" height="3362.16" fill="white"/>
</g>
<path d="M3124.18 4020L3100 3248.81L3482.21 3218.48L3712.15 3201L3903 3265.27L3835.61 3445.21L3743.02 3486.08L3650.42 3536.72L3510.5 3661.66L3333.03 3893.01L3124.18 4020Z" fill="white"/>
<defs>
<filter id="filter0_d_628_3535" x="783" y="895" width="4257" height="4257" filterUnits="userSpaceOnUse" color-interpolation-filters="sRGB">
<feFlood flood-opacity="0" result="BackgroundImageFix"/>
<feColorMatrix in="SourceAlpha" type="matrix" values="0 0 0 0 0 0 0 0 0 0 0 0 0 0 0 0 0 0 127 0" result="hardAlpha"/>
<feOffset dy="4"/>
<feGaussianBlur stdDeviation="2"/>
<feComposite in2="hardAlpha" operator="out"/>
<feColorMatrix type="matrix" values="0 0 0 0 0 0 0 0 0 0 0 0 0 0 0 0 0 0 0.25 0"/>
<feBlend mode="normal" in2="BackgroundImageFix" result="effect1_dropShadow_628_3535"/>
<feBlend mode="normal" in="SourceGraphic" in2="effect1_dropShadow_628_3535" result="shape"/>
</filter>
<filter id="filter1_d_628_3535" x="1750.97" y="1203.12" width="3035.54" height="2250.83" filterUnits="userSpaceOnUse" color-interpolation-filters="sRGB">
<feFlood flood-opacity="0" result="BackgroundImageFix"/>
<feColorMatrix in="SourceAlpha" type="matrix" values="0 0 0 0 0 0 0 0 0 0 0 0 0 0 0 0 0 0 127 0" result="hardAlpha"/>
<feOffset dy="4"/>
<feGaussianBlur stdDeviation="2"/>
<feComposite in2="hardAlpha" operator="out"/>
<feColorMatrix type="matrix" values="0 0 0 0 0 0 0 0 0 0 0 0 0 0 0 0 0 0 0.25 0"/>
<feBlend mode="normal" in2="BackgroundImageFix" result="effect1_dropShadow_628_3535"/>
<feBlend mode="normal" in="SourceGraphic" in2="effect1_dropShadow_628_3535" result="shape"/>
</filter>
<filter id="filter2_d_628_3535" x="827.737" y="3894.48" width="951.01" height="1155.1" filterUnits="userSpaceOnUse" color-interpolation-filters="sRGB">
<feFlood flood-opacity="0" result="BackgroundImageFix"/>
<feColorMatrix in="SourceAlpha" type="matrix" values="0 0 0 0 0 0 0 0 0 0 0 0 0 0 0 0 0 0 127 0" result="hardAlpha"/>
<feOffset dy="4"/>
<feGaussianBlur stdDeviation="2"/>
<feComposite in2="hardAlpha" operator="out"/>
<feColorMatrix type="matrix" values="0 0 0 0 0 0 0 0 0 0 0 0 0 0 0 0 0 0 0.25 0"/>
<feBlend mode="normal" in2="BackgroundImageFix" result="effect1_dropShadow_628_3535"/>
<feBlend mode="normal" in="SourceGraphic" in2="effect1_dropShadow_628_3535" result="shape"/>
</filter>
<filter id="filter3_dd_628_3535" x="4053.38" y="996.675" width="943.133" height="1155.1" filterUnits="userSpaceOnUse" color-interpolation-filters="sRGB">
<feFlood flood-opacity="0" result="BackgroundImageFix"/>
<feColorMatrix in="SourceAlpha" type="matrix" values="0 0 0 0 0 0 0 0 0 0 0 0 0 0 0 0 0 0 127 0" result="hardAlpha"/>
<feOffset dy="4"/>
<feGaussianBlur stdDeviation="2"/>
<feComposite in2="hardAlpha" operator="out"/>
<feColorMatrix type="matrix" values="0 0 0 0 0 0 0 0 0 0 0 0 0 0 0 0 0 0 0.25 0"/>
<feBlend mode="normal" in2="BackgroundImageFix" result="effect1_dropShadow_628_3535"/>
<feColorMatrix in="SourceAlpha" type="matrix" values="0 0 0 0 0 0 0 0 0 0 0 0 0 0 0 0 0 0 127 0" result="hardAlpha"/>
<feOffset dy="4"/>
<feGaussianBlur stdDeviation="2"/>
<feComposite in2="hardAlpha" operator="out"/>
<feColorMatrix type="matrix" values="0 0 0 0 0 0 0 0 0 0 0 0 0 0 0 0 0 0 0.25 0"/>
<feBlend mode="normal" in2="effect1_dropShadow_628_3535" result="effect2_dropShadow_628_3535"/>
<feBlend mode="normal" in="SourceGraphic" in2="effect2_dropShadow_628_3535" result="shape"/>
</filter>
<filter id="filter4_d_628_3535" x="1660.58" y="1829.16" width="188.969" height="185.484" filterUnits="userSpaceOnUse" color-interpolation-filters="sRGB">
<feFlood flood-opacity="0" result="BackgroundImageFix"/>
<feColorMatrix in="SourceAlpha" type="matrix" values="0 0 0 0 0 0 0 0 0 0 0 0 0 0 0 0 0 0 127 0" result="hardAlpha"/>
<feOffset dy="4"/>
<feGaussianBlur stdDeviation="2"/>
<feComposite in2="hardAlpha" operator="out"/>
<feColorMatrix type="matrix" values="0 0 0 0 0 0 0 0 0 0 0 0 0 0 0 0 0 0 0.25 0"/>
<feBlend mode="normal" in2="BackgroundImageFix" result="effect1_dropShadow_628_3535"/>
<feBlend mode="normal" in="SourceGraphic" in2="effect1_dropShadow_628_3535" result="shape"/>
</filter>
<filter id="filter5_d_628_3535" x="2200.6" y="4043.08" width="188.316" height="184.712" filterUnits="userSpaceOnUse" color-interpolation-filters="sRGB">
<feFlood flood-opacity="0" result="BackgroundImageFix"/>
<feColorMatrix in="SourceAlpha" type="matrix" values="0 0 0 0 0 0 0 0 0 0 0 0 0 0 0 0 0 0 127 0" result="hardAlpha"/>
<feOffset dy="4"/>
<feGaussianBlur stdDeviation="2"/>
<feComposite in2="hardAlpha" operator="out"/>
<feColorMatrix type="matrix" values="0 0 0 0 0 0 0 0 0 0 0 0 0 0 0 0 0 0 0.25 0"/>
<feBlend mode="normal" in2="BackgroundImageFix" result="effect1_dropShadow_628_3535"/>
<feBlend mode="normal" in="SourceGraphic" in2="effect1_dropShadow_628_3535" result="shape"/>
</filter>
<linearGradient id="paint0_linear_628_3535" x1="2970.56" y1="0" x2="2970.56" y2="5918.43" gradientUnits="userSpaceOnUse">
<stop stop-color="#98AAFF"/>
<stop offset="1" stop-color="#2946D6"/>
</linearGradient>
</defs>
</svg>
