<svg width="42341" height="7050" viewBox="0 0 42341 7050" fill="none" xmlns="http://www.w3.org/2000/svg">
<path d="M2959.22 475C1325.35 475 0 1800.31 0 3434.22V6393.43H2982.12C4615.89 6393.35 5941.11 5068.03 5941.11 3434.22C5941.11 1834.46 4658.48 475 2959.22 475ZM2742.1 1948.87C2742.1 1880.31 2787.81 1834.6 2856.37 1834.6H3084.92C3153.48 1834.6 3199.19 1880.31 3199.19 1948.87V4005.47C3199.19 4074.03 3153.48 4119.74 3084.92 4119.74H2856.37C2787.81 4119.74 2742.1 4074.04 2742.1 4005.47V1948.87ZM2970.64 5033.72C2776.38 5033.72 2627.91 4885.17 2627.91 4690.99C2627.91 4496.73 2776.47 4348.27 2970.64 4348.27C3164.91 4348.27 3313.37 4496.82 3313.37 4690.99C3313.37 4885.17 3164.81 5033.72 2970.64 5033.72Z" fill="#3254F9"/>
<path d="M2959.22 480C4655.66 480 5936.11 1837.16 5936.11 3434.22C5936.11 5065.27 4613.13 6388.35 2982.12 6388.43H5V3434.22C5 1803.07 1328.12 480 2959.22 480ZM2970.64 4343.27C2773.71 4343.27 2622.91 4493.97 2622.91 4691C2622.91 4887.93 2773.61 5038.72 2970.64 5038.72C3167.58 5038.72 3318.37 4887.93 3318.37 4691C3318.37 4494.06 3167.67 4343.27 2970.64 4343.27ZM2856.37 1829.6C2820.95 1829.6 2791.05 1841.42 2769.99 1862.49C2748.92 1883.55 2737.1 1913.45 2737.1 1948.87V4005.47C2737.1 4040.89 2748.93 4070.79 2769.99 4091.85C2791.05 4112.92 2820.95 4124.75 2856.37 4124.75H3084.92C3120.34 4124.75 3150.24 4112.92 3171.3 4091.85C3192.37 4070.79 3204.19 4040.89 3204.19 4005.47V1948.87C3204.19 1913.45 3192.36 1883.55 3171.3 1862.49C3150.24 1841.42 3120.34 1829.6 3084.92 1829.6H2856.37Z" stroke="url(#paint0_linear_664_3523)" stroke-opacity="0.4" stroke-width="10"/>
<ellipse cx="2970.5" cy="3434.72" rx="2970.5" ry="2959" fill="#3254F9"/>
<g filter="url(#filter0_d_664_3523)">
<g filter="url(#filter1_d_664_3523)">
<path d="M4591.92 3289.06L4226.09 3209.2L4226.12 3209.17C4169.05 2978.38 4049.68 2766.89 3880.58 2596.93C3845.05 2566.75 3791.86 2568.26 3758.2 2600.42C3724.5 2632.55 3721.52 2684.64 3751.34 2720.25C3876.62 2846.18 3970.69 2998.63 4026.33 3165.87L3910.6 3140.76C3759.42 3107.65 3621.05 3032.79 3511.9 2925.01C3402.74 2817.26 3327.34 2681.08 3294.58 2532.61L3149.07 1867.12H3149.11C3133.41 1795.33 3084.96 1734.57 3017.68 1702.37C2950.4 1670.14 2871.74 1670.04 2804.39 1702.09C2737.01 1734.11 2688.41 1794.73 2672.53 1866.48L2588.84 2236.58C2253.06 2325.31 1951.49 2533.48 1774.5 2802.06H1774.47C1758.66 2821.68 1752.02 2846.9 1756.18 2871.56C1760.35 2896.22 1774.93 2918.02 1796.34 2931.58C1817.75 2945.18 1844.01 2949.26 1868.61 2942.85C1893.25 2936.44 1914.01 2920.17 1925.76 2897.98C2085.57 2656.1 2376.44 2463.21 2684.99 2395.15H2686.42L2692.39 2393.46L2695.47 2392.48L2700.47 2390.54L2704.1 2389.02L2708.15 2386.91V2386.87C2709.48 2386.24 2710.74 2385.54 2711.96 2384.76L2715.48 2382.54L2719.18 2379.97L2722.52 2377.4C2723.6 2376.52 2724.68 2375.64 2725.68 2374.65L2729.13 2371.45L2731.75 2368.77C2732.94 2367.54 2734.02 2366.2 2735.09 2364.86C2736.17 2363.52 2736.46 2363.17 2737.18 2362.29C2737.9 2361.41 2739.26 2359.43 2740.27 2357.96L2742.06 2355.28L2744.68 2350.77L2746.3 2347.49H2746.34C2747.06 2346.16 2747.7 2344.75 2748.24 2343.34C2748.85 2341.96 2749.43 2340.55 2749.86 2339.15C2750.32 2337.91 2750.75 2336.64 2751.11 2335.41C2751.47 2334.18 2752.19 2332.03 2752.55 2330.34L2752.59 2330.37C2752.8 2329.74 2752.98 2329.07 2753.13 2328.4L2848.68 1904.03C2854.85 1875.28 2880.72 1854.71 2910.67 1854.71C2940.63 1854.71 2966.49 1875.28 2972.63 1904.03L3118.22 2569.52H3118.25C3158.12 2751.1 3250.22 2917.7 3383.66 3049.58C3517.1 3181.46 3686.28 3273.08 3871.16 3313.58L4552.59 3461.67L4552.55 3461.7C4581.68 3467.9 4602.44 3493.16 4602.44 3522.39C4602.44 3551.6 4581.68 3576.85 4552.55 3583.09L3871.23 3731.1C3849.14 3735.89 3826.97 3741.49 3805.46 3747.69C3763.25 3760.79 3736.92 3801.97 3743.25 3844.94C3749.57 3887.91 3786.71 3920.07 3830.96 3920.95C3839.62 3920.95 3848.2 3919.75 3856.46 3917.32C3874.03 3912.25 3892.13 3907.64 3910.2 3903.76L4591.52 3755.75H4591.56C4664.33 3739.9 4725.68 3692.31 4758.15 3626.52C4790.62 3560.75 4790.62 3484 4758.15 3418.23C4725.68 3352.47 4664.33 3304.85 4591.56 3289.03L4591.92 3289.06Z" fill="white"/>
</g>
<path d="M4028.61 4106.39C3986.41 4080.5 3930.84 4092.86 3904.19 4134.08C3757.06 4362.26 3533.4 4532.95 3271.72 4616.78L3294.6 4511.81C3317.81 4405.12 3363.32 4304.27 3428.26 4215.72C3444.71 4196.8 3452.32 4172.04 3449.31 4147.38C3446.25 4122.73 3432.78 4100.47 3412.24 4085.95C3391.66 4071.48 3365.83 4066.12 3341.05 4071.2C3316.23 4076.23 3294.75 4091.27 3281.74 4112.58C3202.33 4220.9 3146.68 4344.22 3118.34 4474.72L2972.76 5140.63C2966.58 5169.38 2940.72 5189.95 2910.76 5189.95C2880.81 5189.95 2854.98 5169.38 2848.8 5140.63L2703.22 4474.72C2663.17 4293.14 2570.96 4126.61 2437.49 3994.83C2304.01 3863.02 2134.8 3771.44 1949.95 3730.96L1268.59 3582.88C1239.5 3576.64 1218.73 3551.39 1218.73 3522.19C1218.73 3492.95 1239.5 3467.69 1268.59 3461.49L1949.91 3313.41L1949.95 3313.38C2180.84 3263.22 2385.79 3133.59 2527.68 2947.99C2543.63 2929.29 2550.99 2904.98 2548.12 2880.75C2545.21 2856.55 2532.31 2834.57 2512.38 2819.99C2492.48 2805.41 2467.34 2799.49 2442.84 2803.64C2418.34 2807.8 2396.65 2821.64 2382.89 2841.97C2266.87 2993.71 2099.3 3099.7 1910.47 3140.81L1229.15 3288.82C1156.38 3304.64 1095.03 3352.23 1062.56 3418.02C1030.09 3483.79 1030.09 3560.54 1062.56 3626.31C1095.03 3692.11 1156.38 3739.69 1229.15 3755.54L1595.06 3835.4C1656.67 4085.87 1791.62 4313.21 1983.32 4489.43C2020.14 4518.32 2073.44 4514.62 2105.73 4480.95C2138.06 4447.24 2138.56 4394.89 2106.92 4360.58C1963.05 4228.39 1855.7 4062.66 1794.84 3878.78L1910.46 3903.9C2061.65 3936.98 2199.97 4011.86 2309.13 4119.61C2418.29 4227.4 2493.68 4363.58 2526.37 4512.05L2671.95 5177.96L2671.99 5178C2687.69 5249.82 2736.25 5310.58 2803.59 5342.74C2870.94 5374.91 2949.64 5374.9 3017.03 5342.74C3084.38 5310.59 3132.91 5249.82 3148.63 5178L3228.7 4812.41C3571.37 4730.12 3868.14 4520.79 4056.64 4228.39C4083.04 4187.07 4070.54 4132.58 4028.59 4106.37L4028.61 4106.39Z" fill="white"/>
<g filter="url(#filter2_d_664_3523)">
<path d="M1714.96 4862.86C1712.16 4861.52 1433.93 4732.07 1388.41 4442.88C1380.83 4400.44 1343.23 4369.47 1299.3 4369.47C1255.33 4369.47 1217.72 4400.44 1210.14 4442.88C1164.89 4729.29 886.043 4861.59 883.496 4862.75H883.532C851.887 4877.44 831.736 4908.68 831.736 4942.99C831.736 4977.3 851.887 5008.5 883.532 5023.19C886.334 5024.53 1164.67 5153.98 1210.18 5443.17L1210.14 5443.13C1217.72 5485.61 1255.33 5516.57 1299.3 5516.57C1343.23 5516.57 1380.83 5485.61 1388.41 5443.13C1402.1 5357.82 1437.3 5277.23 1490.82 5208.64C1507.74 5190.15 1515.97 5165.53 1513.52 5140.8C1511.08 5116.11 1498.19 5093.5 1477.96 5078.56C1457.74 5063.59 1432.06 5057.64 1407.13 5062.11C1382.24 5066.62 1360.36 5081.13 1346.89 5102.16C1329.72 5124.46 1313.85 5147.67 1299.37 5171.73C1245.06 5083.04 1173.84 5005.41 1089.63 4943.06C1173.79 4880.78 1244.99 4803.22 1299.3 4714.6C1424.8 4923.65 1627.92 5018.23 1639.24 5023.3V5023.26C1661.22 5035.66 1687.52 5038.41 1711.73 5030.87C1735.9 5023.33 1755.73 5006.18 1766.4 4983.6C1777.03 4961.02 1777.53 4935.09 1767.76 4912.13C1757.99 4889.16 1738.85 4871.31 1714.96 4862.86Z" fill="white"/>
</g>
<g filter="url(#filter3_dd_664_3523)">
<path d="M4940.89 1965.13C4937.98 1963.9 4659.03 1831.59 4613.98 1545.08C4606.4 1502.64 4568.79 1471.67 4524.86 1471.67C4480.9 1471.67 4443.33 1502.64 4435.71 1545.08C4390.45 1831.59 4111.61 1963.89 4109.07 1965.06H4109.1C4077.53 1979.74 4057.38 2010.95 4057.38 2045.23C4057.38 2079.5 4077.53 2110.71 4109.1 2125.4C4111.9 2126.63 4390.96 2258.93 4436.01 2545.37V2545.33C4443.59 2587.81 4481.19 2618.78 4525.12 2618.78C4569.09 2618.78 4606.66 2587.81 4614.24 2545.33C4659.5 2258.93 4938.27 2126.62 4940.79 2125.47H4940.82C4972.4 2110.78 4992.51 2079.57 4992.51 2045.3C4992.51 2011.03 4972.4 1979.82 4940.82 1965.13L4940.89 1965.13ZM4524.65 2273.73L4524.68 2273.76C4470.37 2185.11 4399.19 2107.54 4315.02 2045.26C4399.21 1983.13 4470.48 1905.68 4524.86 1817.15C4579.13 1905.81 4650.33 1983.41 4734.49 2045.72C4650.36 2107.86 4579.2 2185.29 4524.86 2273.76L4524.65 2273.73Z" fill="white"/>
</g>
<g filter="url(#filter4_d_664_3523)">
<path d="M1753.8 2481.64C1784.18 2482.03 1812.78 2467.45 1829.87 2442.79C1846.97 2418.13 1850.31 2386.71 1838.75 2359.13C1827.14 2331.55 1802.22 2311.51 1772.37 2305.8C1742.52 2300.1 1711.73 2309.5 1690.47 2330.78C1665.11 2356.14 1657.6 2393.86 1671.4 2426.69C1685.19 2459.52 1717.59 2481.11 1753.8 2481.64Z" fill="white"/>
</g>
<path d="M4370.98 4493C4406 4458.41 4406 4402.58 4370.98 4367.99C4351.87 4349.36 4325.25 4340.09 4298.46 4342.66C4271.62 4345.24 4247.38 4359.4 4232.29 4381.31C4229.02 4386.13 4226.26 4391.27 4224.03 4396.63C4221.73 4401.95 4220.01 4407.48 4218.89 4413.15C4217.67 4419 4217.06 4424.91 4217.06 4430.9C4217.6 4466.37 4239.62 4498.18 4273.1 4511.7C4306.57 4525.2 4345.04 4517.87 4370.91 4493L4370.98 4493Z" fill="white"/>
<g filter="url(#filter5_d_664_3523)">
<path d="M2378.13 4572.59C2375.83 4567.27 2373.03 4562.16 2369.8 4557.34C2366.49 4552.55 2362.76 4548.04 2358.59 4543.92C2354.46 4539.79 2349.86 4536.13 2344.94 4532.93C2340.02 4529.72 2334.81 4526.97 2329.35 4524.75C2323.89 4522.6 2318.22 4520.88 2312.43 4519.72C2282.87 4514.08 2252.41 4523.17 2231 4543.92C2226.87 4548.04 2223.1 4552.54 2219.8 4557.34C2216.53 4562.13 2213.76 4567.23 2211.57 4572.59C2209.2 4577.91 2207.48 4583.47 2206.4 4589.18C2205.21 4594.88 2204.6 4600.66 2204.6 4606.47C2204.6 4612.29 2205.21 4618.03 2206.4 4623.7C2207.48 4629.37 2209.2 4634.9 2211.57 4640.22C2213.76 4645.57 2216.53 4650.68 2219.8 4655.47C2223.14 4660.3 2226.87 4664.84 2231 4669.03C2266.28 4703.37 2323.21 4703.37 2358.52 4669.03C2362.65 4664.84 2366.38 4660.3 2369.72 4655.47C2376.26 4645.82 2380.86 4635.04 2383.19 4623.7C2384.34 4618.03 2384.92 4612.25 2384.92 4606.47C2384.95 4600.66 2384.38 4594.88 2383.19 4589.18C2382.01 4583.51 2380.32 4577.98 2378.13 4572.59Z" fill="white"/>
</g>
<path d="M1774.15 4951.81C1774.15 4981.14 1753.57 5031.55 1498.94 5196.67C1249.45 5234.74 1078.15 5089.6 1078.15 4951.81C1078.15 4814.03 1169.45 4689.98 1346.16 4689.98C1488.14 4751.2 1618.28 4863.85 1774.15 4951.81Z" fill="white"/>
<path d="M3871.38 3344.29L3099.77 3368.47L3116.23 2996.04V2570.62L3871.38 3344.29Z" fill="white"/>
<path d="M2700.08 2388.53L2720.65 3301.08L2338.45 3331.43L2108.51 3348.92L1917.67 3284.62L2295.75 2922.48L2383.72 2826.29L2460.37 2727.52L2525.18 2624.12L2577.65 2411.16L2700.08 2388.53Z" fill="white"/>
<ellipse cx="4545.26" cy="2054.68" rx="237.656" ry="249.487" fill="white"/>
<rect x="1183.09" y="3741.42" width="440.332" height="3429.04" transform="rotate(-90 1183.09 3741.42)" fill="white"/>
<path d="M1935.67 3723.93L2707.28 3699.75L2690.82 4072.18V4430.72L1935.67 3723.93Z" fill="white"/>
<rect x="2687.22" y="1840.17" width="440.332" height="3362.16" fill="white"/>
</g>
<path d="M3124.18 4495L3100 3723.81L3482.21 3693.48L3712.15 3676L3903 3740.27L3835.61 3920.21L3743.02 3961.08L3650.42 4011.72L3510.5 4136.66L3333.03 4368.01L3124.18 4495Z" fill="white"/>
<path d="M9773.13 1195.9H8974.79V3246.68H9648.62C9707.21 3246.68 9765.8 3244.24 9824.4 3239.36C10390.8 3175.88 10674 2826.76 10674 2191.99C10674 2045.51 10654.5 1908.79 10615.4 1781.84C10488.5 1391.21 10207.7 1195.9 9773.13 1195.9ZM9707.21 5400H7758.97V5209.57H8344.91V1195.9H7758.97V1005.47H9926.94C10239.4 1005.47 10508 1059.18 10732.6 1166.6C11152.5 1361.91 11362.5 1701.27 11362.5 2184.67C11362.5 2409.28 11311.2 2607.03 11208.7 2777.93C10949.9 3232.03 10420.1 3459.08 9619.32 3459.08H8974.79V5209.57H9516.78C9541.2 5209.57 9565.61 5212.01 9590.02 5216.89C9668.15 5231.54 9707.21 5292.58 9707.21 5400ZM12497.7 3839.94C12497.7 4049.9 12514.8 4240.33 12549 4411.23C12676 4997.17 12986 5290.14 13479.2 5290.14C13572 5290.14 13662.3 5277.93 13750.2 5253.52C14199.4 5111.91 14424 4630.96 14424 3810.64C14424 3669.04 14416.7 3539.65 14402 3422.46C14314.1 2738.87 13999.2 2397.07 13457.2 2397.07C13340 2397.07 13227.7 2416.6 13120.3 2455.66C12705.3 2621.68 12497.7 3083.11 12497.7 3839.94ZM13479.2 2213.96C13801.4 2213.96 14096.9 2299.41 14365.4 2470.31C14819.5 2768.16 15046.6 3224.71 15046.6 3839.94C15046.6 4294.04 14905 4672.46 14621.8 4975.2C14314.1 5307.23 13926 5473.24 13457.2 5473.24C13125.2 5473.24 12822.4 5380.47 12549 5194.92C12099.8 4887.3 11875.2 4425.88 11875.2 3810.64C11875.2 3366.31 12019.2 2995.21 12307.3 2697.36C12619.8 2375.1 13010.4 2213.96 13479.2 2213.96ZM17075.4 5216.89C17104.7 5216.89 17129.1 5219.34 17148.6 5224.22C17221.9 5233.98 17258.5 5292.58 17258.5 5400H15581.2V5216.89C15747.2 5216.89 15866.9 5204.69 15940.1 5180.27C16067.1 5136.33 16130.6 5002.05 16130.6 4777.44V822.363H15581.2V639.258H16679.9V5216.89H17075.4ZM19177.4 5216.89C19201.8 5216.89 19226.3 5219.34 19250.7 5224.22C19323.9 5233.98 19360.5 5292.58 19360.5 5400H17676V5216.89C17842 5216.89 17961.6 5207.13 18034.8 5187.6C18186.2 5138.77 18261.9 5002.05 18261.9 4777.44V2470.31H17676V2287.21H18811.2V5216.89H19177.4ZM18899.1 1217.87C18899.1 1276.46 18886.9 1332.62 18862.5 1386.33C18794.1 1542.58 18674.5 1620.7 18503.6 1620.7C18449.9 1620.7 18396.2 1610.94 18342.5 1591.41C18181.3 1523.05 18100.8 1398.54 18100.8 1217.87C18100.8 1159.28 18113 1103.13 18137.4 1049.41C18210.6 893.164 18332.7 815.039 18503.6 815.039C18557.3 815.039 18613.5 827.246 18672.1 851.66C18823.4 924.902 18899.1 1046.97 18899.1 1217.87ZM20971.9 5275.49C21308.8 5275.49 21535.8 5172.95 21653 4967.87C21697 4894.63 21718.9 4814.06 21718.9 4726.17C21718.9 4521.09 21570 4345.31 21272.2 4198.83C21208.7 4164.65 21103.7 4115.82 20957.2 4052.34C20556.8 3886.33 20290.7 3730.08 20158.9 3583.59C20017.3 3422.46 19946.5 3234.47 19946.5 3019.63C19946.5 2682.71 20132 2445.9 20503.1 2309.18C20674 2245.7 20859.6 2213.96 21059.8 2213.96C21382 2213.96 21660.3 2282.32 21894.7 2419.04C21894.7 2277.44 21928.9 2196.88 21997.2 2177.34C22026.5 2172.46 22058.3 2170.02 22092.5 2170.02V3085.55H21902C21892.3 2636.33 21643.2 2409.28 21155 2404.39C20788.8 2404.39 20561.7 2511.82 20473.8 2726.66C20449.4 2785.25 20437.2 2846.29 20437.2 2909.77C20437.2 3119.73 20588.6 3297.95 20891.3 3444.43C20959.7 3478.61 21067.1 3525 21213.6 3583.59C21609.1 3744.73 21872.7 3898.54 22004.6 4045.02C22146.2 4201.27 22217 4386.82 22217 4601.66C22217 4997.17 22007 5260.84 21587.1 5392.68C21426 5446.39 21250.2 5473.24 21059.8 5473.24C20708.2 5468.36 20403 5380.47 20144.2 5209.57C20144.2 5336.52 20112.5 5409.77 20049 5429.3C20019.7 5434.18 19985.5 5436.62 19946.5 5436.62V4323.34H20151.5C20161.3 4953.22 20434.8 5270.61 20971.9 5275.49ZM24209.2 5216.89C24238.5 5216.89 24262.9 5219.34 24282.4 5224.22C24355.6 5233.98 24392.3 5292.58 24392.3 5400H22744.3V5216.89C22910.3 5216.89 23030 5204.69 23103.2 5180.27C23230.2 5136.33 23293.6 5002.05 23293.6 4777.44V822.363H22744.3V639.258H23843V2990.33C23896.7 2848.73 23974.8 2721.78 24077.3 2609.47C24321.5 2345.8 24624.2 2213.96 24985.5 2213.96C25141.8 2213.96 25288.3 2248.14 25425 2316.5C25776.5 2506.93 25952.3 2868.26 25952.3 3400.49V5216.89H26318.5C26347.8 5216.89 26372.2 5219.34 26391.8 5224.22C26465 5233.98 26501.6 5292.58 26501.6 5400H24890.3V5216.89C25056.3 5216.89 25173.5 5204.69 25241.9 5180.27C25349.3 5136.33 25403 5002.05 25403 4777.44V3400.49C25403 3239.36 25376.2 3092.87 25322.4 2961.04C25205.3 2682.71 24997.7 2543.55 24699.9 2543.55C24563.2 2543.55 24431.3 2585.06 24304.4 2668.07C23996.8 2868.26 23843 3190.53 23843 3634.86V5216.89H24209.2ZM28413.3 5216.89C28437.7 5216.89 28462.1 5219.34 28486.5 5224.22C28559.8 5233.98 28596.4 5292.58 28596.4 5400H26911.8V5216.89C27077.8 5216.89 27197.4 5207.13 27270.7 5187.6C27422.1 5138.77 27497.7 5002.05 27497.7 4777.44V2470.31H26911.8V2287.21H28047.1V5216.89H28413.3ZM28134.9 1217.87C28134.9 1276.46 28122.7 1332.62 28098.3 1386.33C28030 1542.58 27910.3 1620.7 27739.4 1620.7C27685.7 1620.7 27632 1610.94 27578.3 1591.41C27417.2 1523.05 27336.6 1398.54 27336.6 1217.87C27336.6 1159.28 27348.8 1103.13 27373.2 1049.41C27446.5 893.164 27568.5 815.039 27739.4 815.039C27793.1 815.039 27849.3 827.246 27907.9 851.66C28059.3 924.902 28134.9 1046.97 28134.9 1217.87ZM30654.5 5216.89C30683.8 5216.89 30708.2 5219.34 30727.7 5224.22C30801 5233.98 30837.6 5292.58 30837.6 5400H29043.1V5216.89C29209.2 5216.89 29328.8 5204.69 29402 5180.27C29529 5136.33 29592.5 5002.05 29592.5 4777.44V2470.31H29079.8V2287.21H29592.5V2170.02C29592.5 1769.63 29668.1 1437.6 29819.5 1173.93C30044.1 793.066 30385.9 602.637 30844.9 602.637C31020.7 602.637 31179.4 629.492 31321 683.203C31565.1 785.742 31687.2 927.344 31687.2 1108.01C31687.2 1127.54 31684.8 1149.51 31679.9 1173.93C31650.6 1310.64 31555.4 1379 31394.2 1379C31345.4 1379 31301.4 1364.36 31262.4 1335.06C31223.3 1305.76 31159.8 1212.99 31072 1056.74C30969.4 876.074 30842.5 785.742 30691.1 785.742C30627.6 785.742 30569 797.949 30515.3 822.363C30266.3 934.668 30141.8 1408.3 30141.8 2243.26V2287.21H30984.1V2470.31H30141.8V5216.89H30654.5ZM31797.1 6564.55C31865.4 6564.55 31933.8 6549.9 32002.1 6520.61C32241.4 6418.07 32497.7 6044.53 32771.2 5400L31452.8 2477.64H31093.9V2287.21H32522.2V2477.64H32031.4L33034.8 4821.39L33972.3 2477.64H33437.7V2287.21H34551C34551 2331.15 34546.1 2367.77 34536.3 2397.07C34521.7 2450.78 34465.5 2477.64 34367.9 2477.64C34323.9 2477.64 34284.8 2482.52 34250.7 2492.29C34192.1 2511.82 34138.4 2589.94 34089.5 2726.66L33005.6 5400C32898.1 5663.67 32785.8 5890.72 32668.6 6081.15C32385.4 6554.79 32051 6791.6 31665.2 6791.6C31557.8 6791.6 31455.3 6772.07 31357.6 6733.01C31142.8 6650 31035.3 6515.72 31035.3 6330.18C31035.3 6315.53 31037.8 6298.44 31042.7 6278.91C31067.1 6142.19 31157.4 6073.83 31313.7 6073.83C31372.2 6073.83 31423.5 6088.48 31467.5 6117.77C31516.3 6151.95 31567.6 6242.29 31621.3 6388.77C31660.3 6505.96 31718.9 6564.55 31797.1 6564.55Z" fill="black"/>
<defs>
<filter id="filter0_d_664_3523" x="783" y="1370" width="4257" height="4257" filterUnits="userSpaceOnUse" color-interpolation-filters="sRGB">
<feFlood flood-opacity="0" result="BackgroundImageFix"/>
<feColorMatrix in="SourceAlpha" type="matrix" values="0 0 0 0 0 0 0 0 0 0 0 0 0 0 0 0 0 0 127 0" result="hardAlpha"/>
<feOffset dy="4"/>
<feGaussianBlur stdDeviation="2"/>
<feComposite in2="hardAlpha" operator="out"/>
<feColorMatrix type="matrix" values="0 0 0 0 0 0 0 0 0 0 0 0 0 0 0 0 0 0 0.25 0"/>
<feBlend mode="normal" in2="BackgroundImageFix" result="effect1_dropShadow_664_3523"/>
<feBlend mode="normal" in="SourceGraphic" in2="effect1_dropShadow_664_3523" result="shape"/>
</filter>
<filter id="filter1_d_664_3523" x="1750.97" y="1678.12" width="3035.54" height="2250.83" filterUnits="userSpaceOnUse" color-interpolation-filters="sRGB">
<feFlood flood-opacity="0" result="BackgroundImageFix"/>
<feColorMatrix in="SourceAlpha" type="matrix" values="0 0 0 0 0 0 0 0 0 0 0 0 0 0 0 0 0 0 127 0" result="hardAlpha"/>
<feOffset dy="4"/>
<feGaussianBlur stdDeviation="2"/>
<feComposite in2="hardAlpha" operator="out"/>
<feColorMatrix type="matrix" values="0 0 0 0 0 0 0 0 0 0 0 0 0 0 0 0 0 0 0.25 0"/>
<feBlend mode="normal" in2="BackgroundImageFix" result="effect1_dropShadow_664_3523"/>
<feBlend mode="normal" in="SourceGraphic" in2="effect1_dropShadow_664_3523" result="shape"/>
</filter>
<filter id="filter2_d_664_3523" x="827.736" y="4369.47" width="951.01" height="1155.1" filterUnits="userSpaceOnUse" color-interpolation-filters="sRGB">
<feFlood flood-opacity="0" result="BackgroundImageFix"/>
<feColorMatrix in="SourceAlpha" type="matrix" values="0 0 0 0 0 0 0 0 0 0 0 0 0 0 0 0 0 0 127 0" result="hardAlpha"/>
<feOffset dy="4"/>
<feGaussianBlur stdDeviation="2"/>
<feComposite in2="hardAlpha" operator="out"/>
<feColorMatrix type="matrix" values="0 0 0 0 0 0 0 0 0 0 0 0 0 0 0 0 0 0 0.25 0"/>
<feBlend mode="normal" in2="BackgroundImageFix" result="effect1_dropShadow_664_3523"/>
<feBlend mode="normal" in="SourceGraphic" in2="effect1_dropShadow_664_3523" result="shape"/>
</filter>
<filter id="filter3_dd_664_3523" x="4053.38" y="1471.67" width="943.133" height="1155.1" filterUnits="userSpaceOnUse" color-interpolation-filters="sRGB">
<feFlood flood-opacity="0" result="BackgroundImageFix"/>
<feColorMatrix in="SourceAlpha" type="matrix" values="0 0 0 0 0 0 0 0 0 0 0 0 0 0 0 0 0 0 127 0" result="hardAlpha"/>
<feOffset dy="4"/>
<feGaussianBlur stdDeviation="2"/>
<feComposite in2="hardAlpha" operator="out"/>
<feColorMatrix type="matrix" values="0 0 0 0 0 0 0 0 0 0 0 0 0 0 0 0 0 0 0.25 0"/>
<feBlend mode="normal" in2="BackgroundImageFix" result="effect1_dropShadow_664_3523"/>
<feColorMatrix in="SourceAlpha" type="matrix" values="0 0 0 0 0 0 0 0 0 0 0 0 0 0 0 0 0 0 127 0" result="hardAlpha"/>
<feOffset dy="4"/>
<feGaussianBlur stdDeviation="2"/>
<feComposite in2="hardAlpha" operator="out"/>
<feColorMatrix type="matrix" values="0 0 0 0 0 0 0 0 0 0 0 0 0 0 0 0 0 0 0.25 0"/>
<feBlend mode="normal" in2="effect1_dropShadow_664_3523" result="effect2_dropShadow_664_3523"/>
<feBlend mode="normal" in="SourceGraphic" in2="effect2_dropShadow_664_3523" result="shape"/>
</filter>
<filter id="filter4_d_664_3523" x="1660.58" y="2304.16" width="188.969" height="185.484" filterUnits="userSpaceOnUse" color-interpolation-filters="sRGB">
<feFlood flood-opacity="0" result="BackgroundImageFix"/>
<feColorMatrix in="SourceAlpha" type="matrix" values="0 0 0 0 0 0 0 0 0 0 0 0 0 0 0 0 0 0 127 0" result="hardAlpha"/>
<feOffset dy="4"/>
<feGaussianBlur stdDeviation="2"/>
<feComposite in2="hardAlpha" operator="out"/>
<feColorMatrix type="matrix" values="0 0 0 0 0 0 0 0 0 0 0 0 0 0 0 0 0 0 0.25 0"/>
<feBlend mode="normal" in2="BackgroundImageFix" result="effect1_dropShadow_664_3523"/>
<feBlend mode="normal" in="SourceGraphic" in2="effect1_dropShadow_664_3523" result="shape"/>
</filter>
<filter id="filter5_d_664_3523" x="2200.6" y="4518.08" width="188.316" height="184.713" filterUnits="userSpaceOnUse" color-interpolation-filters="sRGB">
<feFlood flood-opacity="0" result="BackgroundImageFix"/>
<feColorMatrix in="SourceAlpha" type="matrix" values="0 0 0 0 0 0 0 0 0 0 0 0 0 0 0 0 0 0 127 0" result="hardAlpha"/>
<feOffset dy="4"/>
<feGaussianBlur stdDeviation="2"/>
<feComposite in2="hardAlpha" operator="out"/>
<feColorMatrix type="matrix" values="0 0 0 0 0 0 0 0 0 0 0 0 0 0 0 0 0 0 0.25 0"/>
<feBlend mode="normal" in2="BackgroundImageFix" result="effect1_dropShadow_664_3523"/>
<feBlend mode="normal" in="SourceGraphic" in2="effect1_dropShadow_664_3523" result="shape"/>
</filter>
<linearGradient id="paint0_linear_664_3523" x1="2970.56" y1="475" x2="2970.56" y2="6393.43" gradientUnits="userSpaceOnUse">
<stop stop-color="#98AAFF"/>
<stop offset="1" stop-color="#2946D6"/>
</linearGradient>
</defs>
</svg>
